<mxfile host="app.diagrams.net" modified="2024-06-02T09:28:07.245Z" agent="Mozilla/5.0 (Macintosh; Intel Mac OS X 10_15_7) AppleWebKit/537.36 (KHTML, like Gecko) Chrome/125.0.0.0 Safari/537.36 Edg/125.0.0.0" version="24.4.13" etag="bx7DN7nmA9FE8_YbRQeK" type="github">
  <diagram name="第 1 页" id="Odwj7S8m3DqvPSYAP9Ku">
    <mxGraphModel>
      <root>
        <mxCell id="0" />
        <mxCell id="1" parent="0" />
      </root>
    </mxGraphModel>
  </diagram>
</mxfile>
